<svg xmlns="http://www.w3.org/2000/svg" viewBox="0 0 1400 315" role="img" aria-label="GitHub statistics and contribution activity">
<defs>
  <linearGradient id="accent" x1="0" y1="0" x2="1" y2="0"><stop offset="0" stop-color="#22d3ee"/><stop offset=".55" stop-color="#60a5fa"/><stop offset="1" stop-color="#a855f7"/></linearGradient>
  <linearGradient id="faint" x1="0" y1="0" x2="1" y2="0"><stop offset="0" stop-color="#22d3ee" stop-opacity="0"/><stop offset=".2" stop-color="#22d3ee" stop-opacity=".55"/><stop offset=".8" stop-color="#a855f7" stop-opacity=".55"/><stop offset="1" stop-color="#a855f7" stop-opacity="0"/></linearGradient>
  <filter id="glow" x="-30%" y="-100%" width="160%" height="300%"><feGaussianBlur stdDeviation="3" result="b"/><feMerge><feMergeNode in="b"/><feMergeNode in="SourceGraphic"/></feMerge></filter>
</defs>
<style>
  .mono{font-family:ui-monospace,SFMono-Regular,Menlo,Monaco,Consolas,monospace}
  .sans{font-family:-apple-system,BlinkMacSystemFont,'Segoe UI',sans-serif}
</style>
<rect width="1400" height="315" fill="#0d1117"/><rect x="1" y="1" width="513" height="288" rx="15" fill="#0b0f14" stroke="#26303a"/><rect x="536" y="1" width="243" height="288" rx="15" fill="#0b0f14" stroke="#26303a"/><rect x="801" y="1" width="598" height="288" rx="15" fill="#0b0f14" stroke="#26303a"/><text x="28" y="43" class="mono" font-size="21" fill="#22d3ee">amh1k-010</text><text x="168" y="43" class="mono" font-size="20" fill="#e6edf3">/ GitHub Stats</text><text x="28" y="88" class="mono" font-size="21" fill="#22d3ee">*</text><text x="62" y="88" class="mono" font-size="18" fill="#b8c0cc">Total Stars Earned:</text><text x="350" y="88" class="mono" font-size="18" fill="#e6edf3">7</text><text x="28" y="136" class="mono" font-size="21" fill="#22d3ee">+</text><text x="62" y="136" class="mono" font-size="18" fill="#b8c0cc">Commits this year:</text><text x="350" y="136" class="mono" font-size="18" fill="#e6edf3">598</text><text x="28" y="184" class="mono" font-size="21" fill="#22d3ee">PR</text><text x="62" y="184" class="mono" font-size="18" fill="#b8c0cc">Pull Requests:</text><text x="350" y="184" class="mono" font-size="18" fill="#e6edf3">77</text><text x="28" y="232" class="mono" font-size="21" fill="#22d3ee">[]</text><text x="62" y="232" class="mono" font-size="18" fill="#b8c0cc">Public Repositories:</text><text x="350" y="232" class="mono" font-size="18" fill="#e6edf3">53</text><circle cx="446" cy="153" r="57" fill="none" stroke="#202635" stroke-width="12"/><circle cx="446" cy="153" r="57" fill="none" stroke="url(#accent)" stroke-width="12" stroke-linecap="round" stroke-dasharray="286 358" transform="rotate(-90 446 153)"/><text x="446" y="165" text-anchor="middle" class="mono" font-size="37" fill="#e6edf3">A+</text><text x="560" y="43" class="mono" font-size="20" fill="#b8c0cc">Current Streak</text><text x="658" y="135" text-anchor="middle" class="mono" font-size="55" fill="#22d3ee">0</text><text x="658" y="174" text-anchor="middle" class="mono" font-size="24" fill="#e6edf3">days</text><text x="658" y="224" text-anchor="middle" class="mono" font-size="16" fill="#a855f7">longest: 16</text><text x="826" y="43" class="mono" font-size="20" fill="#e6edf3">GitHub Contributions</text><text x="1370" y="64" text-anchor="end" class="mono" font-size="12" fill="#8b949e">LIVE</text><rect x="828" y="74" width="12" height="12" rx="2" fill="#161b22"/><rect x="828" y="91" width="12" height="12" rx="2" fill="#161b22"/><rect x="828" y="108" width="12" height="12" rx="2" fill="#161b22"/><rect x="828" y="125" width="12" height="12" rx="2" fill="#0e4429"/><rect x="828" y="142" width="12" height="12" rx="2" fill="#161b22"/><rect x="828" y="159" width="12" height="12" rx="2" fill="#161b22"/><rect x="828" y="176" width="12" height="12" rx="2" fill="#161b22"/><rect x="845" y="74" width="12" height="12" rx="2" fill="#161b22"/><rect x="845" y="91" width="12" height="12" rx="2" fill="#0e4429"/><rect x="845" y="108" width="12" height="12" rx="2" fill="#161b22"/><rect x="845" y="125" width="12" height="12" rx="2" fill="#0e4429"/><rect x="845" y="142" width="12" height="12" rx="2" fill="#0e4429"/><rect x="845" y="159" width="12" height="12" rx="2" fill="#161b22"/><rect x="845" y="176" width="12" height="12" rx="2" fill="#161b22"/><rect x="862" y="74" width="12" height="12" rx="2" fill="#006d32"/><rect x="862" y="91" width="12" height="12" rx="2" fill="#161b22"/><rect x="862" y="108" width="12" height="12" rx="2" fill="#161b22"/><rect x="862" y="125" width="12" height="12" rx="2" fill="#161b22"/><rect x="862" y="142" width="12" height="12" rx="2" fill="#161b22"/><rect x="862" y="159" width="12" height="12" rx="2" fill="#161b22"/><rect x="862" y="176" width="12" height="12" rx="2" fill="#006d32"/><rect x="879" y="74" width="12" height="12" rx="2" fill="#161b22"/><rect x="879" y="91" width="12" height="12" rx="2" fill="#0e4429"/><rect x="879" y="108" width="12" height="12" rx="2" fill="#161b22"/><rect x="879" y="125" width="12" height="12" rx="2" fill="#161b22"/><rect x="879" y="142" width="12" height="12" rx="2" fill="#161b22"/><rect x="879" y="159" width="12" height="12" rx="2" fill="#161b22"/><rect x="879" y="176" width="12" height="12" rx="2" fill="#39d353"/><rect x="896" y="74" width="12" height="12" rx="2" fill="#39d353"/><rect x="896" y="91" width="12" height="12" rx="2" fill="#39d353"/><rect x="896" y="108" width="12" height="12" rx="2" fill="#006d32"/><rect x="896" y="125" width="12" height="12" rx="2" fill="#006d32"/><rect x="896" y="142" width="12" height="12" rx="2" fill="#39d353"/><rect x="896" y="159" width="12" height="12" rx="2" fill="#0e4429"/><rect x="896" y="176" width="12" height="12" rx="2" fill="#161b22"/><rect x="913" y="74" width="12" height="12" rx="2" fill="#161b22"/><rect x="913" y="91" width="12" height="12" rx="2" fill="#26a641"/><rect x="913" y="108" width="12" height="12" rx="2" fill="#006d32"/><rect x="913" y="125" width="12" height="12" rx="2" fill="#006d32"/><rect x="913" y="142" width="12" height="12" rx="2" fill="#006d32"/><rect x="913" y="159" width="12" height="12" rx="2" fill="#006d32"/><rect x="913" y="176" width="12" height="12" rx="2" fill="#39d353"/><rect x="930" y="74" width="12" height="12" rx="2" fill="#0e4429"/><rect x="930" y="91" width="12" height="12" rx="2" fill="#0e4429"/><rect x="930" y="108" width="12" height="12" rx="2" fill="#006d32"/><rect x="930" y="125" width="12" height="12" rx="2" fill="#39d353"/><rect x="930" y="142" width="12" height="12" rx="2" fill="#26a641"/><rect x="930" y="159" width="12" height="12" rx="2" fill="#39d353"/><rect x="930" y="176" width="12" height="12" rx="2" fill="#006d32"/><rect x="947" y="74" width="12" height="12" rx="2" fill="#0e4429"/><rect x="947" y="91" width="12" height="12" rx="2" fill="#0e4429"/><rect x="947" y="108" width="12" height="12" rx="2" fill="#006d32"/><rect x="947" y="125" width="12" height="12" rx="2" fill="#161b22"/><rect x="947" y="142" width="12" height="12" rx="2" fill="#161b22"/><rect x="947" y="159" width="12" height="12" rx="2" fill="#006d32"/><rect x="947" y="176" width="12" height="12" rx="2" fill="#006d32"/><rect x="964" y="74" width="12" height="12" rx="2" fill="#006d32"/><rect x="964" y="91" width="12" height="12" rx="2" fill="#26a641"/><rect x="964" y="108" width="12" height="12" rx="2" fill="#161b22"/><rect x="964" y="125" width="12" height="12" rx="2" fill="#26a641"/><rect x="964" y="142" width="12" height="12" rx="2" fill="#26a641"/><rect x="964" y="159" width="12" height="12" rx="2" fill="#161b22"/><rect x="964" y="176" width="12" height="12" rx="2" fill="#26a641"/><rect x="981" y="74" width="12" height="12" rx="2" fill="#161b22"/><rect x="981" y="91" width="12" height="12" rx="2" fill="#161b22"/><rect x="981" y="108" width="12" height="12" rx="2" fill="#161b22"/><rect x="981" y="125" width="12" height="12" rx="2" fill="#161b22"/><rect x="981" y="142" width="12" height="12" rx="2" fill="#161b22"/><rect x="981" y="159" width="12" height="12" rx="2" fill="#0e4429"/><rect x="981" y="176" width="12" height="12" rx="2" fill="#161b22"/><rect x="998" y="74" width="12" height="12" rx="2" fill="#26a641"/><rect x="998" y="91" width="12" height="12" rx="2" fill="#006d32"/><rect x="998" y="108" width="12" height="12" rx="2" fill="#161b22"/><rect x="998" y="125" width="12" height="12" rx="2" fill="#161b22"/><rect x="998" y="142" width="12" height="12" rx="2" fill="#161b22"/><rect x="998" y="159" width="12" height="12" rx="2" fill="#006d32"/><rect x="998" y="176" width="12" height="12" rx="2" fill="#006d32"/><rect x="1015" y="74" width="12" height="12" rx="2" fill="#26a641"/><rect x="1015" y="91" width="12" height="12" rx="2" fill="#26a641"/><rect x="1015" y="108" width="12" height="12" rx="2" fill="#26a641"/><rect x="1015" y="125" width="12" height="12" rx="2" fill="#161b22"/><rect x="1015" y="142" width="12" height="12" rx="2" fill="#006d32"/><rect x="1015" y="159" width="12" height="12" rx="2" fill="#26a641"/><rect x="1015" y="176" width="12" height="12" rx="2" fill="#006d32"/><rect x="1032" y="74" width="12" height="12" rx="2" fill="#39d353"/><rect x="1032" y="91" width="12" height="12" rx="2" fill="#26a641"/><rect x="1032" y="108" width="12" height="12" rx="2" fill="#39d353"/><rect x="1032" y="125" width="12" height="12" rx="2" fill="#161b22"/><rect x="1032" y="142" width="12" height="12" rx="2" fill="#0e4429"/><rect x="1032" y="159" width="12" height="12" rx="2" fill="#26a641"/><rect x="1032" y="176" width="12" height="12" rx="2" fill="#006d32"/><rect x="1049" y="74" width="12" height="12" rx="2" fill="#39d353"/><rect x="1049" y="91" width="12" height="12" rx="2" fill="#39d353"/><rect x="1049" y="108" width="12" height="12" rx="2" fill="#26a641"/><rect x="1049" y="125" width="12" height="12" rx="2" fill="#0e4429"/><rect x="1049" y="142" width="12" height="12" rx="2" fill="#006d32"/><rect x="1049" y="159" width="12" height="12" rx="2" fill="#006d32"/><rect x="1049" y="176" width="12" height="12" rx="2" fill="#161b22"/><rect x="1066" y="74" width="12" height="12" rx="2" fill="#0e4429"/><rect x="1066" y="91" width="12" height="12" rx="2" fill="#39d353"/><rect x="1066" y="108" width="12" height="12" rx="2" fill="#161b22"/><rect x="1066" y="125" width="12" height="12" rx="2" fill="#161b22"/><rect x="1066" y="142" width="12" height="12" rx="2" fill="#0e4429"/><rect x="1066" y="159" width="12" height="12" rx="2" fill="#161b22"/><rect x="1066" y="176" width="12" height="12" rx="2" fill="#26a641"/><rect x="1083" y="74" width="12" height="12" rx="2" fill="#26a641"/><rect x="1083" y="91" width="12" height="12" rx="2" fill="#26a641"/><rect x="1083" y="108" width="12" height="12" rx="2" fill="#161b22"/><rect x="1083" y="125" width="12" height="12" rx="2" fill="#161b22"/><rect x="1083" y="142" width="12" height="12" rx="2" fill="#26a641"/><rect x="1083" y="159" width="12" height="12" rx="2" fill="#26a641"/><rect x="1083" y="176" width="12" height="12" rx="2" fill="#39d353"/><rect x="1100" y="74" width="12" height="12" rx="2" fill="#39d353"/><rect x="1100" y="91" width="12" height="12" rx="2" fill="#26a641"/><rect x="1100" y="108" width="12" height="12" rx="2" fill="#006d32"/><rect x="1100" y="125" width="12" height="12" rx="2" fill="#161b22"/><rect x="1100" y="142" width="12" height="12" rx="2" fill="#006d32"/><rect x="1100" y="159" width="12" height="12" rx="2" fill="#26a641"/><rect x="1100" y="176" width="12" height="12" rx="2" fill="#26a641"/><rect x="1117" y="74" width="12" height="12" rx="2" fill="#006d32"/><rect x="1117" y="91" width="12" height="12" rx="2" fill="#006d32"/><rect x="1117" y="108" width="12" height="12" rx="2" fill="#161b22"/><rect x="1117" y="125" width="12" height="12" rx="2" fill="#161b22"/><rect x="1117" y="142" width="12" height="12" rx="2" fill="#0e4429"/><rect x="1117" y="159" width="12" height="12" rx="2" fill="#161b22"/><rect x="1117" y="176" width="12" height="12" rx="2" fill="#161b22"/><rect x="1134" y="74" width="12" height="12" rx="2" fill="#161b22"/><rect x="1134" y="91" width="12" height="12" rx="2" fill="#161b22"/><rect x="1134" y="108" width="12" height="12" rx="2" fill="#161b22"/><rect x="1134" y="125" width="12" height="12" rx="2" fill="#161b22"/><rect x="1134" y="142" width="12" height="12" rx="2" fill="#161b22"/><rect x="1134" y="159" width="12" height="12" rx="2" fill="#161b22"/><rect x="1134" y="176" width="12" height="12" rx="2" fill="#161b22"/><rect x="1151" y="74" width="12" height="12" rx="2" fill="#161b22"/><rect x="1151" y="91" width="12" height="12" rx="2" fill="#26a641"/><rect x="1151" y="108" width="12" height="12" rx="2" fill="#161b22"/><rect x="1151" y="125" width="12" height="12" rx="2" fill="#26a641"/><rect x="1151" y="142" width="12" height="12" rx="2" fill="#26a641"/><rect x="1151" y="159" width="12" height="12" rx="2" fill="#39d353"/><rect x="1151" y="176" width="12" height="12" rx="2" fill="#39d353"/><rect x="1168" y="74" width="12" height="12" rx="2" fill="#39d353"/><rect x="1168" y="91" width="12" height="12" rx="2" fill="#26a641"/><rect x="1168" y="108" width="12" height="12" rx="2" fill="#161b22"/><rect x="1168" y="125" width="12" height="12" rx="2" fill="#006d32"/><rect x="1168" y="142" width="12" height="12" rx="2" fill="#26a641"/><rect x="1168" y="159" width="12" height="12" rx="2" fill="#39d353"/><rect x="1168" y="176" width="12" height="12" rx="2" fill="#39d353"/><rect x="1185" y="74" width="12" height="12" rx="2" fill="#26a641"/><rect x="1185" y="91" width="12" height="12" rx="2" fill="#26a641"/><rect x="1185" y="108" width="12" height="12" rx="2" fill="#161b22"/><rect x="1185" y="125" width="12" height="12" rx="2" fill="#39d353"/><rect x="1185" y="142" width="12" height="12" rx="2" fill="#39d353"/><rect x="1185" y="159" width="12" height="12" rx="2" fill="#0e4429"/><rect x="1185" y="176" width="12" height="12" rx="2" fill="#006d32"/><rect x="1202" y="74" width="12" height="12" rx="2" fill="#161b22"/><rect x="1202" y="91" width="12" height="12" rx="2" fill="#0e4429"/><rect x="1202" y="108" width="12" height="12" rx="2" fill="#39d353"/><rect x="1202" y="125" width="12" height="12" rx="2" fill="#39d353"/><rect x="1202" y="142" width="12" height="12" rx="2" fill="#39d353"/><rect x="1202" y="159" width="12" height="12" rx="2" fill="#39d353"/><rect x="1202" y="176" width="12" height="12" rx="2" fill="#39d353"/><rect x="1219" y="74" width="12" height="12" rx="2" fill="#39d353"/><rect x="1219" y="91" width="12" height="12" rx="2" fill="#39d353"/><rect x="1219" y="108" width="12" height="12" rx="2" fill="#006d32"/><rect x="1219" y="125" width="12" height="12" rx="2" fill="#39d353"/><rect x="1219" y="142" width="12" height="12" rx="2" fill="#39d353"/><rect x="1219" y="159" width="12" height="12" rx="2" fill="#39d353"/><rect x="1219" y="176" width="12" height="12" rx="2" fill="#39d353"/><rect x="1236" y="74" width="12" height="12" rx="2" fill="#26a641"/><rect x="1236" y="91" width="12" height="12" rx="2" fill="#26a641"/><rect x="1236" y="108" width="12" height="12" rx="2" fill="#161b22"/><rect x="1236" y="125" width="12" height="12" rx="2" fill="#26a641"/><rect x="1236" y="142" width="12" height="12" rx="2" fill="#26a641"/><rect x="1236" y="159" width="12" height="12" rx="2" fill="#0e4429"/><rect x="1236" y="176" width="12" height="12" rx="2" fill="#39d353"/><rect x="1253" y="74" width="12" height="12" rx="2" fill="#26a641"/><rect x="1253" y="91" width="12" height="12" rx="2" fill="#161b22"/><rect x="1253" y="108" width="12" height="12" rx="2" fill="#006d32"/><rect x="1253" y="125" width="12" height="12" rx="2" fill="#39d353"/><rect x="1253" y="142" width="12" height="12" rx="2" fill="#39d353"/><rect x="1253" y="159" width="12" height="12" rx="2" fill="#39d353"/><rect x="1253" y="176" width="12" height="12" rx="2" fill="#39d353"/><rect x="1270" y="74" width="12" height="12" rx="2" fill="#26a641"/><rect x="1270" y="91" width="12" height="12" rx="2" fill="#39d353"/><rect x="1270" y="108" width="12" height="12" rx="2" fill="#161b22"/><rect x="1270" y="125" width="12" height="12" rx="2" fill="#26a641"/><rect x="1270" y="142" width="12" height="12" rx="2" fill="#006d32"/><rect x="1270" y="159" width="12" height="12" rx="2" fill="#0e4429"/><rect x="1270" y="176" width="12" height="12" rx="2" fill="#0e4429"/><rect x="1287" y="74" width="12" height="12" rx="2" fill="#26a641"/><rect x="1287" y="91" width="12" height="12" rx="2" fill="#006d32"/><rect x="1287" y="108" width="12" height="12" rx="2" fill="#0e4429"/><rect x="1287" y="125" width="12" height="12" rx="2" fill="#0e4429"/><rect x="1287" y="142" width="12" height="12" rx="2" fill="#26a641"/><rect x="1287" y="159" width="12" height="12" rx="2" fill="#006d32"/><rect x="1287" y="176" width="12" height="12" rx="2" fill="#39d353"/><rect x="1304" y="74" width="12" height="12" rx="2" fill="#26a641"/><rect x="1304" y="91" width="12" height="12" rx="2" fill="#0e4429"/><rect x="1304" y="108" width="12" height="12" rx="2" fill="#161b22"/><rect x="1304" y="125" width="12" height="12" rx="2" fill="#006d32"/><rect x="1304" y="142" width="12" height="12" rx="2" fill="#161b22"/><rect x="1304" y="159" width="12" height="12" rx="2" fill="#0e4429"/><rect x="1304" y="176" width="12" height="12" rx="2" fill="#161b22"/><rect x="1321" y="74" width="12" height="12" rx="2" fill="#0e4429"/><rect x="1321" y="91" width="12" height="12" rx="2" fill="#26a641"/><rect x="1321" y="108" width="12" height="12" rx="2" fill="#26a641"/><rect x="1321" y="125" width="12" height="12" rx="2" fill="#39d353"/><rect x="1321" y="142" width="12" height="12" rx="2" fill="#0e4429"/><rect x="1321" y="159" width="12" height="12" rx="2" fill="#39d353"/><rect x="1321" y="176" width="12" height="12" rx="2" fill="#006d32"/><rect x="1338" y="74" width="12" height="12" rx="2" fill="#26a641"/><rect x="1338" y="91" width="12" height="12" rx="2" fill="#006d32"/><rect x="1338" y="108" width="12" height="12" rx="2" fill="#0e4429"/><rect x="1338" y="125" width="12" height="12" rx="2" fill="#006d32"/><rect x="1338" y="142" width="12" height="12" rx="2" fill="#161b22"/><rect x="1338" y="159" width="12" height="12" rx="2" fill="#161b22"/><rect x="1338" y="176" width="12" height="12" rx="2" fill="#161b22"/><circle cx="829" cy="258" r="5" fill="#39d353"/><text x="844" y="264" class="mono" font-size="14" fill="#8b949e">updated 2026-09-03</text><text x="1370" y="264" text-anchor="end" class="mono" font-size="14" fill="#b8c0cc">831 contributions</text></svg>