<svg xmlns="http://www.w3.org/2000/svg" width="1160" height="170" viewBox="0 0 1160 170" role="img">
<rect x=".5" y=".5" width="1159" height="169" rx="16" fill="#121820" stroke="#2a313b"/>
<text x="40" y="42" fill="#e3a24b" font-family="ui-monospace, SFMono-Regular, Menlo, Monaco, Consolas, 'Liberation Mono', monospace" font-size="11" font-weight="700" letter-spacing="2">WORKING SET</text>
<text x="40" y="76" fill="#f2eee8" font-family="-apple-system, BlinkMacSystemFont, 'Segoe UI', Helvetica, Arial, sans-serif" font-size="22" font-weight="700">Tools I reach for when the system has to survive reality.</text>
<g font-family="ui-monospace, SFMono-Regular, Menlo, Monaco, Consolas, 'Liberation Mono', monospace" font-size="13" fill="#f2eee8">
  <rect x="40" y="104" width="84" height="34" rx="17" fill="#151c25" stroke="#2a313b"/><text x="82" y="126" text-anchor="middle">Go</text>
  <rect x="136" y="104" width="118" height="34" rx="17" fill="#151c25" stroke="#2a313b"/><text x="195" y="126" text-anchor="middle">TypeScript</text>
  <rect x="266" y="104" width="124" height="34" rx="17" fill="#151c25" stroke="#2a313b"/><text x="328" y="126" text-anchor="middle">PostgreSQL</text>
  <rect x="402" y="104" width="82" height="34" rx="17" fill="#151c25" stroke="#2a313b"/><text x="443" y="126" text-anchor="middle">Redis</text>
  <rect x="496" y="104" width="92" height="34" rx="17" fill="#151c25" stroke="#2a313b"/><text x="542" y="126" text-anchor="middle">Docker</text>
  <rect x="600" y="104" width="102" height="34" rx="17" fill="#151c25" stroke="#2a313b"/><text x="651" y="126" text-anchor="middle">React</text>
  <rect x="714" y="104" width="118" height="34" rx="17" fill="#151c25" stroke="#2a313b"/><text x="773" y="126" text-anchor="middle">WebSockets</text>
  <rect x="844" y="104" width="96" height="34" rx="17" fill="#151c25" stroke="#2a313b"/><text x="892" y="126" text-anchor="middle">Linux</text>
  <rect x="952" y="104" width="168" height="34" rx="17" fill="#151c25" stroke="#2a313b"/><text x="1036" y="126" text-anchor="middle">GitHub Actions</text>
</g>
</svg>